<mxfile host="app.diagrams.net" modified="2021-12-10T02:34:03.412Z" agent="5.0 (Macintosh; Intel Mac OS X 10_15_7) AppleWebKit/537.36 (KHTML, like Gecko) Chrome/96.0.4664.93 Safari/537.36" etag="bRGIMeIJA_hMnPJephXp" version="15.9.4" type="github">
  <diagram id="8p1MpEMgbzei0WBGGq7L" name="Page-1">
    <mxGraphModel dx="1298" dy="841" grid="1" gridSize="10" guides="1" tooltips="1" connect="1" arrows="1" fold="1" page="1" pageScale="1" pageWidth="827" pageHeight="1169" math="0" shadow="0">
      <root>
        <mxCell id="0" />
        <mxCell id="1" parent="0" />
        <mxCell id="qo0kCloqR4czt9s2eRaA-3" value="" style="edgeStyle=orthogonalEdgeStyle;rounded=0;orthogonalLoop=1;jettySize=auto;html=1;fontColor=#000000;entryX=0;entryY=0.5;entryDx=0;entryDy=0;" edge="1" parent="1" source="qo0kCloqR4czt9s2eRaA-1" target="qo0kCloqR4czt9s2eRaA-2">
          <mxGeometry relative="1" as="geometry" />
        </mxCell>
        <mxCell id="qo0kCloqR4czt9s2eRaA-4" style="edgeStyle=orthogonalEdgeStyle;rounded=0;orthogonalLoop=1;jettySize=auto;html=1;fontColor=#000000;entryX=0;entryY=0.5;entryDx=0;entryDy=0;" edge="1" parent="1" source="qo0kCloqR4czt9s2eRaA-1" target="qo0kCloqR4czt9s2eRaA-5">
          <mxGeometry relative="1" as="geometry">
            <mxPoint x="570" y="280" as="targetPoint" />
          </mxGeometry>
        </mxCell>
        <mxCell id="qo0kCloqR4czt9s2eRaA-8" style="edgeStyle=orthogonalEdgeStyle;rounded=0;orthogonalLoop=1;jettySize=auto;html=1;entryX=0;entryY=0.5;entryDx=0;entryDy=0;fontColor=#000000;" edge="1" parent="1" source="qo0kCloqR4czt9s2eRaA-1" target="qo0kCloqR4czt9s2eRaA-7">
          <mxGeometry relative="1" as="geometry" />
        </mxCell>
        <mxCell id="qo0kCloqR4czt9s2eRaA-9" style="edgeStyle=orthogonalEdgeStyle;rounded=0;orthogonalLoop=1;jettySize=auto;html=1;entryX=0;entryY=0.5;entryDx=0;entryDy=0;fontColor=#000000;" edge="1" parent="1" source="qo0kCloqR4czt9s2eRaA-1" target="qo0kCloqR4czt9s2eRaA-6">
          <mxGeometry relative="1" as="geometry" />
        </mxCell>
        <mxCell id="qo0kCloqR4czt9s2eRaA-15" style="edgeStyle=orthogonalEdgeStyle;rounded=0;orthogonalLoop=1;jettySize=auto;html=1;entryX=0;entryY=0.5;entryDx=0;entryDy=0;fontColor=#000000;" edge="1" parent="1" source="qo0kCloqR4czt9s2eRaA-1" target="qo0kCloqR4czt9s2eRaA-14">
          <mxGeometry relative="1" as="geometry" />
        </mxCell>
        <mxCell id="qo0kCloqR4czt9s2eRaA-19" style="edgeStyle=orthogonalEdgeStyle;rounded=0;orthogonalLoop=1;jettySize=auto;html=1;entryX=0;entryY=0.5;entryDx=0;entryDy=0;fontColor=#9EF1DD;" edge="1" parent="1" source="qo0kCloqR4czt9s2eRaA-1" target="qo0kCloqR4czt9s2eRaA-18">
          <mxGeometry relative="1" as="geometry" />
        </mxCell>
        <mxCell id="qo0kCloqR4czt9s2eRaA-26" style="edgeStyle=orthogonalEdgeStyle;rounded=0;orthogonalLoop=1;jettySize=auto;html=1;entryX=0;entryY=0.5;entryDx=0;entryDy=0;fontColor=#9EF1DD;" edge="1" parent="1" source="qo0kCloqR4czt9s2eRaA-1" target="qo0kCloqR4czt9s2eRaA-25">
          <mxGeometry relative="1" as="geometry" />
        </mxCell>
        <mxCell id="qo0kCloqR4czt9s2eRaA-1" value="&lt;p class=&quot;p1&quot; style=&quot;margin: 0px; font-stretch: normal; font-size: 14px; line-height: normal; font-family: menlo;&quot;&gt;Engine&lt;/p&gt;" style="whiteSpace=wrap;html=1;strokeColor=#000000;fontColor=#000000;labelBackgroundColor=default;" vertex="1" parent="1">
          <mxGeometry x="340" y="250" width="120" height="60" as="geometry" />
        </mxCell>
        <mxCell id="qo0kCloqR4czt9s2eRaA-2" value="&lt;p class=&quot;p1&quot; style=&quot;margin: 0px; font-stretch: normal; font-size: 14px; line-height: normal; font-family: menlo; color: rgb(158, 241, 221);&quot;&gt;Renderer&lt;/p&gt;" style="whiteSpace=wrap;html=1;strokeColor=#000000;fontColor=#000000;labelBackgroundColor=default;" vertex="1" parent="1">
          <mxGeometry x="560" y="160" width="120" height="70" as="geometry" />
        </mxCell>
        <mxCell id="qo0kCloqR4czt9s2eRaA-5" value="&lt;p class=&quot;p1&quot; style=&quot;margin: 0px; font-stretch: normal; font-size: 14px; line-height: normal; font-family: menlo; color: rgb(158, 241, 221);&quot;&gt;Scene&lt;/p&gt;" style="whiteSpace=wrap;html=1;strokeColor=#000000;fontColor=#000000;labelBackgroundColor=#FFFFFF;" vertex="1" parent="1">
          <mxGeometry x="560" y="245" width="120" height="70" as="geometry" />
        </mxCell>
        <mxCell id="qo0kCloqR4czt9s2eRaA-6" value="&lt;p class=&quot;p1&quot; style=&quot;margin: 0px; font-stretch: normal; font-size: 14px; line-height: normal; font-family: menlo; color: rgb(158, 241, 221);&quot;&gt;View&lt;/p&gt;" style="whiteSpace=wrap;html=1;strokeColor=#000000;fontColor=#000000;labelBackgroundColor=#FFFFFF;" vertex="1" parent="1">
          <mxGeometry x="560" y="440" width="120" height="70" as="geometry" />
        </mxCell>
        <mxCell id="qo0kCloqR4czt9s2eRaA-7" value="&lt;p class=&quot;p1&quot; style=&quot;margin: 0px; font-stretch: normal; font-size: 14px; line-height: normal; font-family: menlo; color: rgb(158, 241, 221);&quot;&gt;Camera&lt;/p&gt;" style="whiteSpace=wrap;html=1;strokeColor=#000000;fontColor=#000000;labelBackgroundColor=#FFFFFF;" vertex="1" parent="1">
          <mxGeometry x="560" y="340" width="120" height="70" as="geometry" />
        </mxCell>
        <mxCell id="qo0kCloqR4czt9s2eRaA-11" value="" style="curved=1;endArrow=classic;html=1;rounded=0;fontColor=#000000;exitX=1;exitY=0.5;exitDx=0;exitDy=0;entryX=1;entryY=0.5;entryDx=0;entryDy=0;" edge="1" parent="1" source="qo0kCloqR4czt9s2eRaA-6" target="qo0kCloqR4czt9s2eRaA-5">
          <mxGeometry width="50" height="50" relative="1" as="geometry">
            <mxPoint x="730" y="510" as="sourcePoint" />
            <mxPoint x="780" y="460" as="targetPoint" />
            <Array as="points">
              <mxPoint x="770" y="460" />
              <mxPoint x="740" y="300" />
            </Array>
          </mxGeometry>
        </mxCell>
        <mxCell id="qo0kCloqR4czt9s2eRaA-13" value="" style="curved=1;endArrow=classic;html=1;rounded=0;fontColor=#000000;exitX=1;exitY=0.5;exitDx=0;exitDy=0;entryX=1;entryY=0.5;entryDx=0;entryDy=0;" edge="1" parent="1" source="qo0kCloqR4czt9s2eRaA-7" target="qo0kCloqR4czt9s2eRaA-5">
          <mxGeometry width="50" height="50" relative="1" as="geometry">
            <mxPoint x="780" y="390" as="sourcePoint" />
            <mxPoint x="830" y="340" as="targetPoint" />
            <Array as="points">
              <mxPoint x="780" y="375" />
              <mxPoint x="750" y="280" />
            </Array>
          </mxGeometry>
        </mxCell>
        <mxCell id="qo0kCloqR4czt9s2eRaA-14" value="&lt;p class=&quot;p1&quot; style=&quot;margin: 0px; font-stretch: normal; font-size: 14px; line-height: normal; font-family: menlo; color: rgb(158, 241, 221);&quot;&gt;SwapChain&lt;/p&gt;" style="whiteSpace=wrap;html=1;strokeColor=#000000;fontColor=#000000;labelBackgroundColor=#FFFFFF;" vertex="1" parent="1">
          <mxGeometry x="560" y="540" width="120" height="70" as="geometry" />
        </mxCell>
        <mxCell id="qo0kCloqR4czt9s2eRaA-17" style="edgeStyle=orthogonalEdgeStyle;rounded=0;orthogonalLoop=1;jettySize=auto;html=1;entryX=0;entryY=0.75;entryDx=0;entryDy=0;fontColor=#9EF1DD;" edge="1" parent="1" source="qo0kCloqR4czt9s2eRaA-16" target="qo0kCloqR4czt9s2eRaA-14">
          <mxGeometry relative="1" as="geometry" />
        </mxCell>
        <mxCell id="qo0kCloqR4czt9s2eRaA-16" value="&lt;p class=&quot;p1&quot; style=&quot;margin: 0px ; font-stretch: normal ; font-size: 14px ; line-height: normal ; font-family: &amp;quot;menlo&amp;quot;&quot;&gt;&lt;font&gt;UIView.&lt;/font&gt;&lt;span style=&quot;font-family: menlo;&quot;&gt;CAEAGLLayer&lt;/span&gt;&lt;/p&gt;&lt;p class=&quot;p1&quot; style=&quot;margin: 0px ; font-stretch: normal ; font-size: 14px ; line-height: normal ; font-family: &amp;quot;menlo&amp;quot;&quot;&gt;&lt;span style=&quot;&quot;&gt;UIView.&lt;/span&gt;&lt;span style=&quot;&quot;&gt;CAMetalLayer&lt;/span&gt;&lt;font&gt;&lt;span style=&quot;font-family: &amp;quot;menlo&amp;quot;&quot;&gt;&lt;br&gt;&lt;/span&gt;&lt;/font&gt;&lt;/p&gt;" style="whiteSpace=wrap;html=1;strokeColor=#000000;fontColor=#9EF1DD;labelBackgroundColor=#FFFFFF;" vertex="1" parent="1">
          <mxGeometry x="260" y="585" width="200" height="70" as="geometry" />
        </mxCell>
        <mxCell id="qo0kCloqR4czt9s2eRaA-24" style="edgeStyle=orthogonalEdgeStyle;rounded=0;orthogonalLoop=1;jettySize=auto;html=1;entryX=0;entryY=0.5;entryDx=0;entryDy=0;fontColor=#9EF1DD;" edge="1" parent="1" source="qo0kCloqR4czt9s2eRaA-18" target="qo0kCloqR4czt9s2eRaA-23">
          <mxGeometry relative="1" as="geometry" />
        </mxCell>
        <mxCell id="qo0kCloqR4czt9s2eRaA-18" value="&lt;p class=&quot;p1&quot; style=&quot;margin: 0px; font-stretch: normal; font-size: 14px; line-height: normal; font-family: menlo;&quot;&gt;MaterialProvider&lt;/p&gt;" style="whiteSpace=wrap;html=1;labelBackgroundColor=#FFFFFF;fontColor=#9EF1DD;strokeColor=#000000;" vertex="1" parent="1">
          <mxGeometry x="560" y="670" width="150" height="60" as="geometry" />
        </mxCell>
        <mxCell id="qo0kCloqR4czt9s2eRaA-22" style="edgeStyle=orthogonalEdgeStyle;rounded=0;orthogonalLoop=1;jettySize=auto;html=1;entryX=0;entryY=0.5;entryDx=0;entryDy=0;fontColor=#9EF1DD;" edge="1" parent="1" source="qo0kCloqR4czt9s2eRaA-20" target="qo0kCloqR4czt9s2eRaA-21">
          <mxGeometry relative="1" as="geometry" />
        </mxCell>
        <mxCell id="qo0kCloqR4czt9s2eRaA-20" value="&lt;p class=&quot;p1&quot; style=&quot;margin: 0px; font-stretch: normal; font-size: 14px; line-height: normal; font-family: menlo;&quot;&gt;EntityManager&lt;/p&gt;" style="whiteSpace=wrap;html=1;labelBackgroundColor=#FFFFFF;fontColor=#9EF1DD;strokeColor=#000000;" vertex="1" parent="1">
          <mxGeometry x="310" y="1110" width="150" height="60" as="geometry" />
        </mxCell>
        <mxCell id="qo0kCloqR4czt9s2eRaA-21" value="&lt;p class=&quot;p1&quot; style=&quot;margin: 0px; font-stretch: normal; font-size: 14px; line-height: normal; font-family: menlo;&quot;&gt;NameComponentManager&lt;/p&gt;" style="whiteSpace=wrap;html=1;labelBackgroundColor=#FFFFFF;fontColor=#9EF1DD;strokeColor=#000000;" vertex="1" parent="1">
          <mxGeometry x="550" y="1110" width="190" height="60" as="geometry" />
        </mxCell>
        <mxCell id="qo0kCloqR4czt9s2eRaA-33" value="" style="edgeStyle=orthogonalEdgeStyle;rounded=0;orthogonalLoop=1;jettySize=auto;html=1;fontColor=#9EF1DD;" edge="1" parent="1" source="qo0kCloqR4czt9s2eRaA-23" target="qo0kCloqR4czt9s2eRaA-32">
          <mxGeometry relative="1" as="geometry" />
        </mxCell>
        <mxCell id="qo0kCloqR4czt9s2eRaA-23" value="&lt;p class=&quot;p1&quot; style=&quot;margin: 0px; font-stretch: normal; font-size: 14px; line-height: normal; font-family: menlo;&quot;&gt;AssetLoader&lt;/p&gt;" style="whiteSpace=wrap;html=1;labelBackgroundColor=#FFFFFF;fontColor=#9EF1DD;strokeColor=#000000;" vertex="1" parent="1">
          <mxGeometry x="800" y="670" width="120" height="60" as="geometry" />
        </mxCell>
        <mxCell id="qo0kCloqR4czt9s2eRaA-25" value="&lt;p class=&quot;p1&quot; style=&quot;margin: 0px; font-stretch: normal; font-size: 14px; line-height: normal; font-family: menlo;&quot;&gt;ResourceLoader&lt;/p&gt;" style="whiteSpace=wrap;html=1;labelBackgroundColor=#FFFFFF;fontColor=#9EF1DD;strokeColor=#000000;" vertex="1" parent="1">
          <mxGeometry x="560" y="760" width="150" height="60" as="geometry" />
        </mxCell>
        <mxCell id="qo0kCloqR4czt9s2eRaA-31" style="edgeStyle=orthogonalEdgeStyle;rounded=0;orthogonalLoop=1;jettySize=auto;html=1;entryX=0;entryY=0.5;entryDx=0;entryDy=0;fontColor=#9EF1DD;" edge="1" parent="1" source="qo0kCloqR4czt9s2eRaA-27" target="qo0kCloqR4czt9s2eRaA-29">
          <mxGeometry relative="1" as="geometry" />
        </mxCell>
        <mxCell id="qo0kCloqR4czt9s2eRaA-27" value="&lt;p class=&quot;p1&quot; style=&quot;margin: 0px; font-stretch: normal; font-size: 14px; line-height: normal; font-family: menlo;&quot;&gt;Manipulator&lt;/p&gt;" style="whiteSpace=wrap;html=1;labelBackgroundColor=#FFFFFF;fontColor=#9EF1DD;strokeColor=#000000;" vertex="1" parent="1">
          <mxGeometry x="575" y="1240" width="120" height="60" as="geometry" />
        </mxCell>
        <mxCell id="qo0kCloqR4czt9s2eRaA-29" value="&lt;p class=&quot;p1&quot; style=&quot;margin: 0px; font-stretch: normal; font-size: 14px; line-height: normal; font-family: menlo; color: rgb(65, 161, 192);&quot;&gt;orbitHomePosition&lt;/p&gt;" style="whiteSpace=wrap;html=1;labelBackgroundColor=#FFFFFF;fontColor=#9EF1DD;strokeColor=#000000;" vertex="1" parent="1">
          <mxGeometry x="810" y="1200" width="180" height="60" as="geometry" />
        </mxCell>
        <mxCell id="qo0kCloqR4czt9s2eRaA-40" value="" style="edgeStyle=orthogonalEdgeStyle;rounded=0;orthogonalLoop=1;jettySize=auto;html=1;fontColor=#9EF1DD;" edge="1" parent="1" source="qo0kCloqR4czt9s2eRaA-32" target="qo0kCloqR4czt9s2eRaA-39">
          <mxGeometry relative="1" as="geometry" />
        </mxCell>
        <mxCell id="qo0kCloqR4czt9s2eRaA-32" value="&lt;p class=&quot;p1&quot; style=&quot;margin: 0px; font-stretch: normal; font-size: 14px; line-height: normal; font-family: menlo;&quot;&gt;FilamentAsset&lt;/p&gt;" style="whiteSpace=wrap;html=1;strokeColor=#000000;fontColor=#9EF1DD;labelBackgroundColor=#FFFFFF;" vertex="1" parent="1">
          <mxGeometry x="1010" y="670" width="120" height="60" as="geometry" />
        </mxCell>
        <mxCell id="qo0kCloqR4czt9s2eRaA-34" value="" style="curved=1;endArrow=classic;html=1;rounded=0;fontColor=#9EF1DD;exitX=0.567;exitY=-0.017;exitDx=0;exitDy=0;exitPerimeter=0;entryX=1.017;entryY=0.143;entryDx=0;entryDy=0;entryPerimeter=0;" edge="1" parent="1" source="qo0kCloqR4czt9s2eRaA-32" target="qo0kCloqR4czt9s2eRaA-5">
          <mxGeometry width="50" height="50" relative="1" as="geometry">
            <mxPoint x="1090" y="630" as="sourcePoint" />
            <mxPoint x="1140" y="580" as="targetPoint" />
            <Array as="points">
              <mxPoint x="1000" y="420" />
              <mxPoint x="910" y="230" />
            </Array>
          </mxGeometry>
        </mxCell>
        <mxCell id="qo0kCloqR4czt9s2eRaA-35" value="&lt;p class=&quot;p1&quot; style=&quot;margin: 0px; font-stretch: normal; font-size: 14px; line-height: normal; font-family: menlo; color: rgb(103, 183, 164);&quot;&gt;addEntities&lt;/p&gt;" style="edgeLabel;html=1;align=center;verticalAlign=middle;resizable=0;points=[];fontColor=#9EF1DD;labelBackgroundColor=#FFFFFF;" vertex="1" connectable="0" parent="qo0kCloqR4czt9s2eRaA-34">
          <mxGeometry x="-0.1401" y="1" relative="1" as="geometry">
            <mxPoint as="offset" />
          </mxGeometry>
        </mxCell>
        <mxCell id="qo0kCloqR4czt9s2eRaA-36" value="" style="curved=1;endArrow=classic;html=1;rounded=0;fontColor=#9EF1DD;exitX=1;exitY=0.5;exitDx=0;exitDy=0;entryX=0.5;entryY=1;entryDx=0;entryDy=0;" edge="1" parent="1" source="qo0kCloqR4czt9s2eRaA-25" target="qo0kCloqR4czt9s2eRaA-32">
          <mxGeometry width="50" height="50" relative="1" as="geometry">
            <mxPoint x="790" y="830" as="sourcePoint" />
            <mxPoint x="840" y="780" as="targetPoint" />
            <Array as="points">
              <mxPoint x="840" y="790" />
              <mxPoint x="1040" y="780" />
            </Array>
          </mxGeometry>
        </mxCell>
        <mxCell id="qo0kCloqR4czt9s2eRaA-37" value="&lt;p class=&quot;p1&quot; style=&quot;margin: 0px; font-stretch: normal; font-size: 14px; line-height: normal; font-family: menlo; color: rgb(103, 183, 164);&quot;&gt;loadResources&lt;/p&gt;" style="edgeLabel;html=1;align=center;verticalAlign=middle;resizable=0;points=[];fontColor=#9EF1DD;labelBackgroundColor=#FFFFFF;" vertex="1" connectable="0" parent="qo0kCloqR4czt9s2eRaA-36">
          <mxGeometry x="-0.0939" relative="1" as="geometry">
            <mxPoint as="offset" />
          </mxGeometry>
        </mxCell>
        <mxCell id="qo0kCloqR4czt9s2eRaA-39" value="&lt;p class=&quot;p1&quot; style=&quot;margin: 0px ; font-stretch: normal ; font-size: 14px ; line-height: normal ; font-family: &amp;#34;menlo&amp;#34;&quot;&gt;gltfio&lt;span class=&quot;s1&quot;&gt;::&lt;/span&gt;Animator&lt;/p&gt;" style="whiteSpace=wrap;html=1;strokeColor=#000000;fontColor=#9EF1DD;labelBackgroundColor=#FFFFFF;" vertex="1" parent="1">
          <mxGeometry x="1241" y="620" width="160" height="60" as="geometry" />
        </mxCell>
        <mxCell id="qo0kCloqR4czt9s2eRaA-41" value="&lt;p class=&quot;p1&quot; style=&quot;margin: 0px; font-stretch: normal; font-size: 14px; line-height: normal; font-family: menlo;&quot;&gt;Skybox&lt;/p&gt;" style="whiteSpace=wrap;html=1;labelBackgroundColor=#FFFFFF;fontColor=#9EF1DD;strokeColor=#000000;" vertex="1" parent="1">
          <mxGeometry x="570" y="860" width="120" height="60" as="geometry" />
        </mxCell>
        <mxCell id="qo0kCloqR4czt9s2eRaA-42" value="&lt;p class=&quot;p1&quot; style=&quot;margin: 0px; font-stretch: normal; font-size: 14px; line-height: normal; font-family: menlo;&quot;&gt;IndirectLight&lt;/p&gt;" style="whiteSpace=wrap;html=1;labelBackgroundColor=#FFFFFF;fontColor=#9EF1DD;strokeColor=#000000;" vertex="1" parent="1">
          <mxGeometry x="570" y="950" width="120" height="60" as="geometry" />
        </mxCell>
        <mxCell id="qo0kCloqR4czt9s2eRaA-43" value="&lt;p class=&quot;p1&quot; style=&quot;margin: 0px; font-stretch: normal; font-size: 14px; line-height: normal; font-family: menlo;&quot;&gt;LightManager&lt;/p&gt;" style="whiteSpace=wrap;html=1;labelBackgroundColor=#FFFFFF;fontColor=#9EF1DD;strokeColor=#000000;" vertex="1" parent="1">
          <mxGeometry x="570" y="1030" width="120" height="60" as="geometry" />
        </mxCell>
      </root>
    </mxGraphModel>
  </diagram>
</mxfile>
